<?xml version="1.0" encoding="UTF-8" standalone="no"?>
<svg
   width="827.9342pt"
   height="393.47415pt"
   viewBox="0 0 827.93419 393.47415"
   version="1.1"
   id="svg160"
   sodipodi:docname="silhouetten_familie.svg"
   inkscape:version="1.2.1 (9c6d41e410, 2022-07-14)"
   xmlns:inkscape="http://www.inkscape.org/namespaces/inkscape"
   xmlns:sodipodi="http://sodipodi.sourceforge.net/DTD/sodipodi-0.dtd"
   xmlns="http://www.w3.org/2000/svg"
   xmlns:svg="http://www.w3.org/2000/svg">
  <sodipodi:namedview
     id="namedview7"
     pagecolor="#ffffff"
     bordercolor="#000000"
     borderopacity="0.25"
     inkscape:showpageshadow="2"
     inkscape:pageopacity="0.0"
     inkscape:pagecheckerboard="0"
     inkscape:deskcolor="#d1d1d1"
     inkscape:document-units="pt"
     showgrid="false"
     inkscape:zoom="1.0545528"
     inkscape:cx="551.89268"
     inkscape:cy="223.79154"
     inkscape:window-width="1920"
     inkscape:window-height="1057"
     inkscape:window-x="1912"
     inkscape:window-y="-8"
     inkscape:window-maximized="1"
     inkscape:current-layer="svg160" />
  <defs
     id="defs164" />
  <g
     id="g229"
     transform="translate(-7.264995,-187.15477)">
    <path
       fill-rule="nonzero"
       fill="#62b9e9"
       fill-opacity="1"
       d="m 835.19922,434.46484 c -6.19922,0 -13.60156,-1.13672 -14.16406,-3.78906 -1.35938,-0.51953 -2.39844,-1.21484 -3.11719,-2.01172 -3.94141,-0.0898 -6.69141,-1.18359 -8.22656,-2.68359 -4.83594,1.34765 -10.45313,1.70312 -16.64844,0.92187 -10.25,-1.28906 -18.86328,-5.30078 -29.3125,-6.09765 -3.88281,-0.29688 -6.15625,-1.45703 -7.11719,-2.92578 -0.85547,0.11718 -1.77734,0.1875 -2.77734,0.1875 -1.34375,0 -2.54688,-0.11719 -3.625,-0.32422 -0.4375,0.043 -0.85157,0.0312 -1.25782,0.10937 -0.47265,0.0859 -1.05468,0.0742 -1.57031,0.11328 -0.23828,0.0195 -0.48047,0.0352 -0.71875,0.0586 -0.16406,0.0117 -0.58594,0.0898 -0.7539,0.0781 -0.24219,-0.0156 -0.4336,-0.19531 -0.64454,-0.25 -0.36718,-0.0937 -0.57812,-0.082 -0.64062,-0.26172 -0.0195,-0.0625 0.0664,-0.21484 -0.0352,-0.26172 -0.15625,-0.0742 -0.0312,0 -0.2539,-0.0351 -0.21485,-0.0352 -0.41407,-0.10938 -0.63672,-0.14844 -0.25781,-0.0469 -0.28516,-0.0781 -0.48828,-0.13672 -0.0977,-0.0273 -0.35547,-0.0742 -0.44922,-0.0937 -0.11328,-0.0156 -0.29297,-0.043 -0.49219,-0.0586 -0.25781,-0.0195 -0.60937,-0.0703 -0.87891,-0.0547 -0.41796,0.0273 -0.38281,0.15625 -0.59375,0.25781 -0.17578,-0.10547 -0.27343,-0.375 -0.55078,-0.44531 -0.29297,-0.0781 -0.72265,0.082 -1.1289,0.0781 -0.35157,-0.004 -0.41407,-0.0508 -0.6875,-0.10938 -0.19532,-0.0391 -0.33985,-0.043 -0.57813,-0.0703 -0.22656,-0.0312 -0.18359,-0.008 -0.33203,-0.0899 -0.14062,-0.0742 -0.13672,-0.13671 -0.38672,-0.18359 -0.42187,-0.082 -0.89453,-0.0586 -1.19922,-0.21484 -0.0547,-0.0469 -0.11328,-0.0937 -0.17187,-0.14063 -0.043,-0.008 -0.0898,-0.004 -0.13281,0.0156 -0.0508,0.0117 -0.10547,0.0156 -0.16016,0.0156 l -0.12109,-0.0508 c -0.20704,-0.0508 -0.88282,-0.42578 -0.98047,-0.17578 -0.37891,-0.15625 -0.1875,-0.0352 -0.37891,-0.0352 -0.29297,0 -0.0586,-0.0156 -0.23047,-0.0234 -0.26172,-0.008 -0.41015,-0.0469 -0.66015,-0.0117 -0.26563,0.0351 -0.004,0.0547 -0.0977,0.0742 -0.1875,0.0391 -0.30859,0.0117 -0.48828,0.0156 -0.0977,0.004 -0.17188,-0.0117 -0.28516,-0.008 -0.10547,0.004 -0.19922,0.0351 -0.30859,0.043 -0.004,0 -0.14844,-0.0352 -0.15235,-0.0352 -0.10546,0.008 -0.13671,0.0391 -0.22656,0.0508 -0.22656,0.0312 -0.45312,0.0586 -0.67187,0.0977 -0.30078,0.0508 -0.54297,0.14062 -0.83985,0.17578 -0.58203,0.0664 -1.15625,-0.0859 -1.53906,-0.19922 -0.5625,-0.16797 -1.32422,-0.10937 -1.99609,-0.13281 -0.6211,-0.0195 -1.10547,-0.0937 -1.59766,-0.22266 -0.24219,-0.0625 -0.47266,-0.11719 -0.75391,-0.15625 -0.15234,-0.0195 -0.33593,-0.0234 -0.48437,-0.0469 -0.3125,-0.0469 -0.19531,-0.0312 -0.26563,-0.16016 -0.13281,-0.23047 -0.4414,-0.30078 -1.01953,-0.37891 -0.66406,-0.0898 -0.79687,-0.32031 -1.27734,-0.47656 -0.33203,-0.10937 -0.46875,-0.0469 -0.83984,-0.0898 -0.1875,-0.0195 -0.40235,-0.0937 -0.58985,-0.12891 -0.61719,-0.11328 -0.55078,-0.3789 -1.33984,-0.38672 -0.57031,-0.008 -1.25391,0.043 -1.70313,-0.125 -0.11718,-0.043 -0.19531,-0.20312 -0.35547,-0.21875 -0.0547,-0.004 -0.20312,0.0547 -0.25781,0.0625 -0.21875,0.0391 -0.44531,0.0664 -0.68359,0.0859 -0.62891,0.0469 -0.90625,-0.10937 -1.35938,-0.23828 -0.12109,-0.0352 -0.3125,-0.11719 -0.48437,-0.0898 -0.0156,0.004 -0.12891,0.0937 -0.19531,0.10937 -0.1211,0.0312 -0.36719,0.0312 -0.51172,0.0508 -0.36719,0.043 -0.75782,0.0977 -1.09375,0.16406 -0.26563,0.0547 -0.44922,0.11719 -0.77344,0.11329 -0.35547,-0.004 -0.62109,-0.0781 -0.83594,-0.17969 -0.12109,-0.0586 -0.28515,-0.3125 -0.46094,-0.33594 -0.17968,-0.0234 -0.34375,0.0781 -0.5625,0.0469 -0.21484,-0.0312 -0.52343,-0.23438 -0.6875,-0.30079 -0.20703,-0.082 -0.42968,-0.16015 -0.69921,-0.21875 -0.44141,-0.0937 -0.45313,-0.0273 -0.48047,0.13672 -0.0937,-0.0391 -0.34766,-0.17968 -0.51172,-0.16406 -0.0937,0.0117 0.004,0.10156 -0.1875,0.12109 -0.29297,0.0312 -0.10938,-0.0273 -0.2461,-0.0391 -0.17187,-0.0156 -0.53906,-0.0312 -0.74218,-0.0273 -0.53516,0.008 -0.375,0.19922 -0.79297,0.27344 -0.29688,0.0547 -0.35938,0.008 -0.63672,0 -0.35547,-0.008 -0.44531,0.10937 -0.75,0.13281 -0.19922,0.0117 -0.23828,-0.0508 -0.41406,-0.0391 -0.10547,0.008 -0.33985,0.14062 -0.4375,0.16796 -0.4961,0.13672 -1.08203,0.26563 -1.47266,0.44532 -0.18359,0.0859 -0.25,0.17578 -0.5,0.24218 -0.21094,0.0547 -0.46875,0.082 -0.73047,0.0899 -0.5039,0.0156 -1.30859,-0.0859 -1.67187,-0.1875 -0.19141,-0.0508 -0.28125,-0.13672 -0.50782,-0.1875 -0.21484,-0.0469 -0.46875,-0.0703 -0.71875,-0.082 -0.69921,-0.0312 -1.39843,0.043 -2.08593,0.0742 -1.32032,0.0625 -2.34766,-0.0664 -3.40235,-0.33204 -0.5,-0.1289 -1.0039,-0.23046 -1.59765,-0.28906 -0.32813,-0.0312 -0.69141,-0.0273 -1.00782,-0.0586 -0.30859,-0.0352 -0.1289,0.043 -0.27343,-0.0859 -0.0664,-0.0586 -0.0625,-0.13672 -0.10157,-0.19922 -0.1289,-0.20312 -0.33203,-0.41797 -0.76953,-0.5664 -0.46875,-0.16016 -1.07031,-0.16797 -1.65234,-0.23829 -1.23438,-0.15625 -1.66406,-0.57421 -2.5625,-0.86718 -0.48047,-0.15625 -1.01953,-0.2461 -1.68359,-0.25391 -0.39063,-0.004 -0.51954,-0.004 -0.85157,-0.0742 -0.27343,-0.0586 -0.55468,-0.10937 -0.84765,-0.15625 -0.39844,-0.0586 -0.90625,-0.0937 -1.22657,-0.20312 -0.39453,-0.13672 -0.39062,-0.34766 -0.8789,-0.46485 -0.46485,-0.11328 -1.06641,-0.11328 -1.61328,-0.11328 -0.71875,0 -1.42969,0.004 -2.14453,-0.0273 -0.59375,-0.0234 -1.26563,-0.0586 -1.80079,-0.15235 -0.23046,-0.043 -0.38671,-0.0898 -0.51953,-0.16796 -0.125,-0.0742 -0.17578,-0.23829 -0.43359,-0.25782 -0.17188,-0.0117 -0.57031,0.0859 -0.73047,0.10938 -0.27344,0.0391 -0.55078,0.0625 -0.83984,0.0859 -0.60938,0.0469 -1.39844,0.15234 -2.02735,0.125 -0.50781,-0.0234 -0.99609,-0.17579 -1.41406,-0.26954 -0.29297,-0.0625 -0.86719,-0.2539 -1.24609,-0.1875 -0.13672,0.0195 -0.17188,0.0977 -0.28125,0.13282 -0.21485,0.0703 -0.49219,0.0781 -0.75782,0.10547 -0.71484,0.0781 -1.38671,0.19531 -2.05859,0.30859 -0.64844,0.10937 -1.19922,0.28125 -1.83984,0.38281 -0.3086,0.0508 -0.51172,0.0274 -0.81641,0.0469 -0.28516,0.0156 -0.5,0.0937 -0.72266,0.15625 -0.18359,0.0508 -0.52343,0.19531 -0.75781,0.20703 -0.23047,0.0117 -0.17969,-0.043 -0.42187,-0.0117 -0.24219,0.0352 -0.46875,0.20703 -0.66407,0.27344 -0.3789,0.125 -0.46484,0.0898 -0.94921,0.0351 -1.55079,-0.17578 -3.09375,-0.21875 -4.71485,-0.18359 -0.79297,0.0156 -1.57812,0.0508 -2.35937,0.0977 -0.35157,0.0195 -0.69922,0.043 -1.04297,0.0703 -0.0156,0 -1.10938,0.0664 -0.92969,-0.0508 -0.0391,0.0234 -0.66406,-0.0274 -0.82422,-0.0547 -0.61328,-0.0977 -1.13281,-0.30078 -1.55078,-0.49219 -0.20312,-0.0937 -0.39062,-0.20703 -0.64062,-0.28515 -0.26172,-0.0781 -0.26563,-0.0625 -0.44922,0.0508 -0.35938,0.22265 -0.52735,0.47265 -0.88282,0.69531 -0.32812,-0.26563 -0.27343,-0.71875 -1.42968,-0.69531 -0.4375,0.008 -0.96875,0.0781 -1.35547,0.15234 -0.19141,0.0352 -0.35156,0.043 -0.52735,0.0664 -0.32812,0.0469 -0.1914,0.0781 -0.36718,0.15625 -0.25782,0.11328 -0.73828,0.1289 -1.01172,0.23828 -0.12891,0.0508 -0.17578,0.1289 -0.28906,0.18359 -0.17579,0.0937 -0.40235,0.14063 -0.66016,0.20313 -0.39844,0.0898 -0.73828,0.20703 -1.08984,0.32031 -0.32032,0.10547 -0.65235,0.30469 -1.03516,0.36328 -0.19531,0.0312 -0.11719,-0.0703 -0.28906,0.0234 -0.10547,0.0508 -0.0234,0.16406 -0.004,0.22265 0.0586,0.16016 0.28906,0.3711 0.23828,0.53125 -0.0976,0.3125 -2.07422,0.0664 -2.60547,0.0195 -1.97656,-0.17969 -3.84765,-0.48829 -5.83593,-0.64844 -0.25,-0.0195 -0.4961,-0.0391 -0.7461,-0.0547 -0.17187,-0.008 -0.30859,-0.0156 -0.41015,-0.0391 -0.79688,0.10156 -1.64844,0.16015 -2.57032,0.16015 -4.46875,0 -7.46093,-1.26562 -9,-2.96484 -0.17968,0.004 -0.35156,0.0156 -0.53515,0.0156 -3.03125,0 -5.38282,-0.58594 -7.07032,-1.48829 -1.05078,0.19532 -2.21875,0.3086 -3.51953,0.3086 -2.0039,0 -3.70312,-0.25781 -5.11718,-0.69141 -0.1875,0.0742 -0.34766,0.15235 -0.54297,0.22656 -0.3125,0.1211 -0.51172,0.1875 -0.94532,0.24219 -0.22656,0.0274 -0.875,0.19922 -1.07031,0.1875 -0.14844,-0.0117 -0.125,-0.0937 -0.25,-0.10547 -0.0976,-0.0117 -0.35547,0.082 -0.39453,0.0937 -0.0156,0.004 -0.30078,0.10547 -0.36328,0.0977 -0.16797,-0.0156 -0.008,-0.082 -0.12109,-0.10156 -0.0469,-0.008 -0.65235,0.23828 -0.75,0.26562 -0.41016,0.11328 -0.77735,0.2461 -1.15625,0.375 -0.23829,0.0781 -0.55079,0.28125 -0.81641,0.33203 -0.38672,0.0664 -0.65625,-0.10547 -0.79297,-0.19922 -0.39844,-0.26171 -0.84766,-0.33203 -1.59375,-0.14843 -0.625,0.15625 -1.15234,0.35156 -1.71484,0.53515 -0.8125,-0.16797 -1.62891,-0.33593 -2.45703,-0.49609 -2.1875,-0.41797 -4.40625,-0.71875 -6.70704,-0.98438 -0.89062,-0.44921 -1.73828,-0.92187 -2.98828,-1.13671 -0.9414,-0.16407 -1.46093,0.082 -1.94922,0.38281 -1.08593,0.66797 -2.71484,0.30859 -4.09765,0.0703 -1.13672,-0.19531 -2.27344,-0.39062 -3.40235,-0.59375 -1.30859,-0.24219 -2.5625,-0.44531 -3.84375,-0.0742 -1.60156,0.46094 -3.58984,0.7461 -5.59765,0.61719 -0.5586,-0.0352 -1.07813,-0.12109 -1.58203,-0.21875 -0.16797,-0.11328 -0.375,-0.21875 -0.6211,-0.30859 -0.54297,-0.20313 -1.17187,-0.36329 -1.84765,-0.48047 -0.82422,-0.14063 -1.60547,-0.32422 -2.41797,-0.48047 -0.64063,-0.1211 -1.29688,-0.21094 -1.97266,-0.28906 -0.26172,-0.12891 -0.51172,-0.26954 -0.8789,-0.33204 -0.27735,-0.0469 -0.42579,0.0234 -0.57032,0.11329 -0.32031,0.19531 -0.80078,0.0898 -1.20703,0.0195 -0.33203,-0.0586 -0.66797,-0.11719 -1,-0.17578 -0.38281,-0.0703 -0.7539,-0.12891 -1.1289,-0.0234 -0.47266,0.13672 -1.0586,0.22265 -1.64844,0.18359 -0.32813,-0.0195 -0.60156,-0.0976 -0.90235,-0.15234 -0.14453,-0.0234 -0.28906,-0.0469 -0.4375,-0.0664 -0.0391,-0.0273 -0.0742,-0.0586 -0.10156,-0.0898 -0.11328,-0.13281 -0.18359,-0.26563 -0.40625,-0.3711 -0.1914,-0.0898 -0.4414,-0.13281 -0.70703,-0.14453 -0.28125,-0.0117 -0.55859,0 -0.82812,0.0312 -0.33204,0.0391 -0.66797,0.0586 -1,0.0937 -0.26563,0.0234 -0.51172,0.0625 -0.75782,0.10938 -0.15234,-0.0195 -0.30859,-0.0391 -0.45312,-0.0234 -0.10938,0.0156 -0.11719,0.0547 -0.10938,0.10156 0,0.0195 -0.0117,0.0312 -0.0195,0.043 -0.0156,0 -0.0312,0 -0.0469,0 -0.25,0.004 -0.57032,0.0469 -0.81641,0.0156 -0.39453,-0.0469 -0.26953,-0.22266 -0.39453,-0.35157 -0.0156,-0.0156 -0.0586,-0.0312 -0.10547,-0.0234 -0.64453,0.10156 -1.08984,0.3789 -1.52734,0.59375 -0.0547,-0.17188 -0.0977,-0.35157 -0.25391,-0.50782 -0.0547,-0.0547 -0.19531,-0.10546 -0.35937,-0.082 -2.20704,0.34766 -3.73047,1.29688 -5.22266,2.04297 -0.082,-0.004 -0.16406,-0.008 -0.24609,-0.0117 -0.46485,-0.0273 -0.78516,-0.16406 -1.23047,-0.20703 -0.0352,-0.004 -0.0742,0 -0.0937,0.0156 -0.39453,0.27734 -0.54297,0.60156 -0.92188,0.88672 -0.41797,0.3125 -1.14844,0.53515 -1.88672,0.72265 -0.72265,0.17969 -1.51172,0.32031 -2.32812,0.41406 -0.70703,0.0859 -1.46485,0.10938 -2.14844,0.22657 -0.60937,0.10156 -1.04687,0.28515 -1.38672,0.51172 -0.42187,0.28125 -0.51953,0.60156 -0.875,0.89062 -0.14453,0.11719 -0.35156,0.21875 -0.58594,0.30859 -0.0469,-0.004 -0.0937,-0.0117 -0.14453,-0.0117 -0.27734,-0.0117 -0.55468,0 -0.82422,0.0312 -0.33203,0.0391 -0.66796,0.0586 -1,0.0937 -0.26562,0.0273 -0.51171,0.0625 -0.75781,0.10937 -0.15625,-0.0195 -0.30859,-0.0391 -0.45703,-0.0195 -0.10937,0.0117 -0.11328,0.0508 -0.10937,0.0977 0.0156,0.10156 -0.1875,0.11718 -0.35157,0.13671 -0.13281,0.0156 -0.26562,0.0312 -0.39843,0.0469 -0.15625,0.0156 -0.30469,0.0352 -0.35547,0.11328 -0.0664,0.0977 -0.19532,0.1875 -0.39453,0.23828 -0.11329,0.0274 -0.23829,0.0312 -0.35938,0.043 -0.10156,0.0117 -0.20312,0.0273 -0.29687,0.0469 -0.24219,0.0508 -0.46485,0.11718 -0.70313,0.17187 -0.0977,0.0234 -0.19531,0.0508 -0.29297,0.0781 -0.83984,0 -1.68359,-0.008 -2.49609,-0.0547 -1.58203,-0.0899 -2.67188,-0.5625 -4.1875,-0.70703 -0.125,-0.0117 -0.26172,0.008 -0.32813,0.0547 -1.33593,0.9375 -1.84375,2.05079 -3.125,3.01172 -0.0156,0.0117 -0.0391,0.0234 -0.0547,0.0352 -0.23829,-0.13672 -0.44141,-0.28125 -0.57813,-0.4375 -0.26562,-0.30469 -0.42187,-0.61719 -0.9375,-0.85938 -0.44141,-0.20312 -1.02734,-0.3125 -1.64453,-0.33984 -0.64063,-0.0273 -1.28516,0.004 -1.91016,0.0742 -0.76172,0.0898 -1.54297,0.14062 -2.3125,0.21484 -0.60937,0.0625 -1.17968,0.15235 -1.7539,0.25782 -0.35547,-0.043 -0.70703,-0.0899 -1.04688,-0.0508 -0.2539,0.0312 -0.26953,0.125 -0.2539,0.23047 0.0312,0.23438 -0.44141,0.26953 -0.81641,0.3125 -0.30859,0.0391 -0.61719,0.0742 -0.92578,0.10938 -0.35938,0.0391 -0.69531,0.082 -0.82031,0.26172 -0.15235,0.22265 -0.45313,0.43359 -0.91407,0.55078 -0.2539,0.0625 -0.54687,0.0703 -0.82812,0.10156 -0.23438,0.0273 -0.46875,0.0625 -0.69141,0.10938 -0.55469,0.11718 -1.07031,0.27343 -1.61719,0.39843 -0.53125,0.125 -1.03906,0.26563 -1.5,0.44141 -0.17187,0.0625 -0.34375,0.17578 -0.55078,0.21484 -0.33984,0.0586 -0.48047,-0.11328 -0.73437,-0.18359 -0.0312,-0.008 -0.082,-0.0117 -0.10547,0.004 -0.34766,0.26171 -0.26172,0.63281 -0.30469,0.92968 -0.0586,0.41407 -0.082,0.82813 -0.14062,1.23828 -0.0312,0.21485 -0.0195,0.4336 -0.3125,0.60938 -0.25391,0.15625 -0.60157,0.27734 -0.9375,0.39453 -0.0703,0.0234 -0.13672,0.0469 -0.20313,0.0703 -0.52734,0.0977 -1.01172,0.21094 -1.46484,0.34375 -0.14844,0.0117 -0.30078,0.0234 -0.44531,0.0547 -0.0312,0.004 -0.0508,0.0195 -0.0469,0.0352 0.004,0.0195 0.0156,0.0351 0.0234,0.0547 -0.71875,0.23829 -1.34375,0.51563 -1.90235,0.82813 -0.0273,-0.004 -0.0586,-0.0117 -0.0859,-0.0195 -0.35547,-0.0586 -0.69141,-0.13672 -1.03907,-0.20703 -0.27734,-0.0508 -0.55859,-0.0899 -0.84765,-0.1211 -0.11328,-0.0586 -0.22266,-0.11718 -0.37891,-0.14453 -0.12109,-0.0195 -0.18359,0.0117 -0.24609,0.0469 -0.13672,0.0859 -0.34375,0.0391 -0.51953,0.008 -0.14063,-0.0234 -0.28516,-0.0469 -0.42969,-0.0742 -0.16406,-0.0273 -0.32422,-0.0547 -0.48438,-0.008 -0.20312,0.0586 -0.45312,0.0937 -0.70703,0.0781 -0.14062,-0.008 -0.26172,-0.043 -0.39062,-0.0664 -0.0586,-0.0117 -0.1211,-0.0195 -0.1875,-0.0274 -0.0156,-0.0117 -0.0312,-0.0273 -0.043,-0.0391 -0.0508,-0.0547 -0.0781,-0.11328 -0.17578,-0.16016 -0.0781,-0.0391 -0.1875,-0.0586 -0.30469,-0.0625 -0.11719,-0.004 -0.23828,0 -0.35547,0.0156 -0.14062,0.0156 -0.28515,0.0234 -0.42969,0.0391 -0.11328,0.0117 -0.21875,0.0274 -0.32421,0.0469 -0.0664,-0.008 -0.13282,-0.0156 -0.19532,-0.008 -0.0469,0.004 -0.0508,0.0234 -0.0469,0.043 0,0.008 -0.004,0.0117 -0.008,0.0156 h -0.0195 c -0.10937,0.004 -0.24609,0.0195 -0.35156,0.008 -0.17187,-0.0195 -0.11719,-0.0977 -0.16797,-0.14844 -0.008,-0.008 -0.0273,-0.0156 -0.0469,-0.0117 -0.27735,0.043 -0.46875,0.16016 -0.65625,0.25391 -0.0234,-0.0742 -0.043,-0.14844 -0.10938,-0.21484 -0.0234,-0.0274 -0.0859,-0.0508 -0.15234,-0.0391 -0.94922,0.14844 -1.60547,0.5586 -2.24609,0.87891 -0.0352,0 -0.0703,-0.004 -0.10547,-0.004 -0.19922,-0.0117 -0.33594,-0.0703 -0.52735,-0.0898 -0.0156,-0.004 -0.0351,0 -0.043,0.008 -0.16796,0.11719 -0.23437,0.25782 -0.39453,0.37891 -0.17968,0.13672 -0.49609,0.23047 -0.80859,0.30859 -0.3125,0.0781 -0.65234,0.14063 -1.00391,0.1836 -0.30468,0.0351 -0.6289,0.0469 -0.92187,0.0937 -0.26172,0.0469 -0.44922,0.125 -0.59766,0.21875 -0.17969,0.12109 -0.22265,0.26172 -0.375,0.38281 -0.0625,0.0547 -0.15234,0.0937 -0.25,0.13281 -0.0234,0 -0.043,-0.004 -0.0625,-0.004 -0.12109,-0.004 -0.24219,0 -0.35547,0.0156 -0.14062,0.0156 -0.28515,0.0234 -0.42968,0.0391 -0.11329,0.0117 -0.21875,0.0274 -0.32813,0.0469 -0.0625,-0.008 -0.12891,-0.0156 -0.19141,-0.008 -0.0469,0.004 -0.0508,0.0234 -0.0469,0.043 0.004,0.043 -0.082,0.0469 -0.15234,0.0547 -0.0586,0.008 -0.11719,0.0156 -0.17188,0.0234 -0.0703,0.008 -0.12891,0.0117 -0.15234,0.0469 -0.0312,0.043 -0.0859,0.082 -0.17188,0.10157 -0.0469,0.0117 -0.10156,0.0156 -0.15234,0.0195 -0.0469,0.004 -0.0899,0.0117 -0.12891,0.0195 -0.10156,0.0234 -0.19922,0.0508 -0.30078,0.0742 -0.043,0.0117 -0.0859,0.0234 -0.125,0.0351 -0.36328,0 -0.72656,-0.004 -1.07422,-0.0234 -0.67969,-0.0391 -1.14844,-0.24219 -1.80078,-0.30469 -0.0508,-0.004 -0.11328,0.004 -0.14062,0.0234 -0.25,0.17578 -0.4375,0.37109 -0.60938,0.5625 -0.0664,-0.0312 -0.14062,-0.0547 -0.19531,-0.0899 -0.2461,-0.15234 -0.28516,-0.32812 -0.41016,-0.49609 -0.10547,-0.14453 -0.2539,-0.28125 -0.43359,-0.41406 -0.45313,-0.32813 -1.03906,-0.63672 -1.52344,-0.96094 -0.47656,-0.3125 -1.01562,-0.61328 -1.67578,-0.88281 -0.24219,-0.10157 -0.65234,-0.19922 -0.80469,-0.32422 -0.23828,-0.20313 0.38672,-0.29688 0.625,-0.45313 0.0312,-0.0195 0.0352,-0.0508 -0.0273,-0.0625 -0.96485,-0.19922 -2.30078,-0.1289 -3.375,-0.13672 -1.50391,-0.0156 -3.00781,-0.0117 -4.51172,-0.0234 -0.76953,-0.008 -1.55859,0.008 -2.21094,-0.15625 -0.58203,-0.15235 -1.04297,-0.35157 -1.48437,-0.55078 -0.41797,-0.1875 -0.90235,-0.3711 -1.2461,-0.57813 -0.35937,-0.21484 -0.26172,-0.45703 -0.55859,-0.67578 -0.0234,-0.0195 -0.0781,-0.0312 -0.13281,-0.0273 -1.14453,0.0664 -2.21094,0.27343 -3.35938,0.35156 -1.27344,0.0859 -2.59375,-0.0274 -3.79297,-0.17969 -0.082,-0.008 -0.16406,-0.0195 -0.24609,-0.0312 -0.0625,-0.0352 -0.12891,-0.0703 -0.19922,-0.10156 -0.39844,-0.1875 -0.85937,-0.34766 -1.34766,-0.48828 -0.60156,-0.16797 -1.17187,-0.35547 -1.76562,-0.53125 -0.46484,-0.14063 -0.94141,-0.25391 -1.42969,-0.36328 -0.19531,-0.11329 -0.38281,-0.23047 -0.64844,-0.30469 -0.20312,-0.0547 -0.30859,-0.0195 -0.40625,0.0273 -0.22265,0.10938 -0.57421,-0.004 -0.86718,-0.0859 -0.24219,-0.0664 -0.48828,-0.13281 -0.73047,-0.20312 -0.27735,-0.082 -0.54688,-0.15234 -0.8125,-0.10938 -0.33203,0.0547 -0.75,0.0625 -1.17578,-0.0156 -0.23828,-0.0391 -0.44141,-0.11719 -0.66016,-0.17969 -0.18359,-0.0508 -0.375,-0.10156 -0.57031,-0.14062 -0.49219,-0.0977 -0.9961,-0.17188 -1.48828,-0.26563 -0.48438,-0.0898 -0.96875,-0.16797 -1.45703,-0.21875 -0.17969,-0.0195 -0.40625,-0.0195 -0.58594,-0.0586 -0.28906,-0.0664 -0.20313,-0.17578 -0.30078,-0.27344 -0.0117,-0.0156 -0.043,-0.0273 -0.0781,-0.0273 -0.5,0.0195 -0.82031,0.19531 -1.15234,0.3125 -0.46485,0.15625 -0.91016,0.32812 -1.375,0.48828 -0.23828,0.082 -0.45703,0.17578 -0.82813,0.17187 -0.33203,-0.004 -0.6914,-0.043 -1.03515,-0.0859 -0.32422,-0.0391 -0.67188,-0.0703 -0.99219,-0.125 -0.33984,-0.0586 -0.57422,-0.17969 -0.89844,-0.2461 -0.0273,-0.008 -0.0547,-0.004 -0.0664,0.004 -0.27344,0.15625 -0.36329,0.36719 -0.625,0.53125 -0.28516,0.17969 -0.80469,0.27344 -1.32422,0.33594 -0.51563,0.0664 -1.07422,0.0976 -1.66016,0.0937 -0.50781,0 -1.04687,-0.0469 -1.53516,-0.0234 -0.43359,0.0195 -0.74218,0.10937 -0.97656,0.23437 -0.28906,0.15625 -0.34765,0.3711 -0.58984,0.53907 -0.27344,0.1914 -0.89844,0.24609 -1.35938,0.35546 -0.22265,0.0508 -0.4375,0.10938 -0.64062,0.16797 -0.10938,0.0352 -0.25,0.0664 -0.34375,0.11328 -0.29688,-0.0195 -0.59766,-0.0391 -0.90235,-0.0117 -0.48437,0.0391 -0.93359,0.19921 -1.30078,0.38671 -0.375,0.1875 -0.65234,0.41797 -0.98828,0.625 -0.42969,0.25782 -1.04297,0.46875 -1.64453,0.54297 -0.48828,0.0664 -0.96094,0.0859 -1.40625,0.25 -0.37891,0.14063 -0.64453,0.34766 -0.79687,0.57813 -0.14063,0.20312 -0.21094,0.41406 -0.23829,0.625 -0.84375,0.0273 -1.57812,0.125 -2.17578,0.2539 -0.73437,0.16016 -1.22265,0.3711 -1.86718,0.55079 -0.8125,0.23046 -2.08594,0.3789 -3.42188,0.39453 -1.08203,0.0117 -2.15625,-0.0156 -3.07031,0.10937 -0.70313,0.0937 -1.14453,0.25781 -1.37891,0.45313 -0.18359,0.004 -0.36719,0.0312 -0.55469,0.082 -0.68359,0.19922 -1.53906,0.32031 -2.40234,0.26953 -0.24219,-0.0195 -0.46484,-0.0547 -0.67969,-0.0977 -0.0742,-0.0469 -0.16406,-0.0937 -0.26953,-0.13281 -0.23047,-0.0859 -0.5,-0.15625 -0.79297,-0.20312 -0.35547,-0.0625 -0.6875,-0.14063 -1.03906,-0.20704 -0.27734,-0.0547 -0.55469,-0.0898 -0.84766,-0.125 -0.11328,-0.0547 -0.21875,-0.11718 -0.3789,-0.14453 -0.11719,-0.0195 -0.17969,0.0117 -0.2461,0.0508 -0.13671,0.082 -0.33984,0.0391 -0.51562,0.008 -0.14453,-0.0234 -0.28906,-0.0508 -0.42969,-0.0742 -0.16406,-0.0312 -0.32422,-0.0586 -0.48828,-0.0117 -0.19922,0.0586 -0.45312,0.0937 -0.70703,0.0781 -0.13672,-0.008 -0.25781,-0.043 -0.38672,-0.0664 -0.0625,-0.008 -0.125,-0.0195 -0.1875,-0.0274 -0.0156,-0.0117 -0.0312,-0.0234 -0.043,-0.0391 -0.0508,-0.0547 -0.0781,-0.11328 -0.17578,-0.15625 -0.082,-0.0391 -0.19141,-0.0586 -0.30469,-0.0664 -0.11718,-0.004 -0.23828,0 -0.35547,0.0156 -0.14062,0.0156 -0.28515,0.0234 -0.42968,0.0391 -0.11328,0.0117 -0.21875,0.0274 -0.32422,0.0469 -0.0664,-0.008 -0.13281,-0.0156 -0.19531,-0.008 -0.0469,0.004 -0.0508,0.0234 -0.0469,0.043 0,0.008 -0.004,0.0117 -0.008,0.0195 -0.008,0 -0.0117,0 -0.0195,0 -0.10938,0 -0.2461,0.0195 -0.35157,0.004 -0.17187,-0.0195 -0.11718,-0.0937 -0.17187,-0.14844 -0.004,-0.008 -0.0234,-0.0156 -0.043,-0.0117 -0.27734,0.043 -0.46875,0.16406 -0.65625,0.25781 -0.0234,-0.0742 -0.043,-0.15235 -0.10937,-0.21875 -0.0234,-0.0234 -0.0859,-0.0469 -0.15235,-0.0352 -0.95312,0.14844 -1.60547,0.55469 -2.24609,0.875 -0.0352,0 -0.0703,0 -0.10547,-0.004 -0.19922,-0.0117 -0.33984,-0.0703 -0.53125,-0.0899 -0.0156,0 -0.0312,0 -0.0391,0.008 -0.16797,0.11719 -0.23438,0.25782 -0.39453,0.37891 -0.17969,0.13672 -0.4961,0.23438 -0.8125,0.3125 -0.3125,0.0781 -0.64844,0.13672 -1,0.17969 -0.30469,0.0351 -0.62891,0.0469 -0.92188,0.0976 -0.26172,0.043 -0.44922,0.1211 -0.59766,0.21875 -0.17968,0.1211 -0.22265,0.25782 -0.375,0.38282 -0.0625,0.0508 -0.15234,0.0937 -0.2539,0.13281 -0.0195,-0.004 -0.0391,-0.004 -0.0586,-0.008 -0.12109,-0.004 -0.24218,0 -0.35546,0.0156 -0.14454,0.0156 -0.28907,0.0234 -0.42969,0.0391 -0.11328,0.0117 -0.22266,0.0274 -0.32813,0.0469 -0.0664,-0.008 -0.13281,-0.0156 -0.19531,-0.008 -0.0469,0.004 -0.0469,0.0234 -0.0469,0.043 0.008,0.043 -0.082,0.0508 -0.15235,0.0586 -0.0547,0.004 -0.11328,0.0117 -0.16797,0.0195 -0.0703,0.008 -0.13281,0.0156 -0.15625,0.0469 -0.0273,0.043 -0.082,0.082 -0.16797,0.10546 -0.0469,0.0117 -0.10156,0.0117 -0.15625,0.0156 -0.043,0.008 -0.0859,0.0117 -0.125,0.0234 -0.10546,0.0195 -0.19921,0.0508 -0.30078,0.0742 -0.043,0.008 -0.0859,0.0195 -0.1289,0.0312 -0.35938,0 -0.72266,-0.004 -1.07422,-0.0234 -0.67578,-0.0391 -1.14453,-0.24219 -1.79688,-0.30469 -0.0547,-0.004 -0.11328,0.004 -0.14062,0.0234 -0.57422,0.40234 -0.79297,0.88281 -1.34375,1.29687 -0.008,0.004 -0.0156,0.008 -0.0234,0.0156 -0.10156,-0.0586 -0.1875,-0.1211 -0.24609,-0.19141 -0.11328,-0.1289 -0.1836,-0.26172 -0.40625,-0.36719 -0.1875,-0.0898 -0.44141,-0.13281 -0.70703,-0.14453 -0.27344,-0.0156 -0.55079,0 -0.81641,0.0312 -0.32813,0.0391 -0.66406,0.0586 -0.99609,0.0899 -0.26172,0.0273 -0.50782,0.0664 -0.75391,0.10937 -0.15234,-0.0156 -0.30469,-0.0391 -0.44922,-0.0195 -0.10937,0.0117 -0.11719,0.0547 -0.10937,0.0977 0.0117,0.10156 -0.19141,0.11718 -0.35157,0.13672 -0.13281,0.0156 -0.26562,0.0312 -0.39843,0.0469 -0.15625,0.0156 -0.29688,0.0352 -0.35157,0.10938 -0.0664,0.0976 -0.19531,0.1875 -0.39453,0.23828 -0.10937,0.0273 -0.23437,0.0312 -0.35547,0.043 -0.10156,0.0117 -0.19922,0.0273 -0.29687,0.0469 -0.23828,0.0508 -0.46094,0.11719 -0.69141,0.17188 -0.23047,0.0547 -0.44922,0.11328 -0.64844,0.1914 -0.0742,0.0274 -0.14453,0.0742 -0.23437,0.0899 -0.14844,0.0273 -0.20703,-0.0469 -0.31641,-0.0781 -0.0117,-0.004 -0.0351,-0.004 -0.0469,0.004 -0.14844,0.11328 -0.10938,0.26953 -0.12891,0.39843 -0.0273,0.17579 -0.0351,0.35547 -0.0625,0.53125 -0.0117,0.0937 -0.008,0.1875 -0.13281,0.26172 -0.10938,0.0664 -0.25781,0.1211 -0.40234,0.17188 -0.0312,0.008 -0.0586,0.0195 -0.0859,0.0312 -0.22656,0.0391 -0.4375,0.0898 -0.63281,0.14453 -0.0625,0.004 -0.12891,0.0117 -0.19141,0.0234 -0.0117,0.004 -0.0195,0.008 -0.0195,0.0156 0.004,0.008 0.008,0.0156 0.0117,0.0234 -0.42969,0.14062 -0.78516,0.32031 -1.08594,0.51953 -0.0625,0.0391 -0.10938,0.082 -0.16016,0.12109 -0.0703,0.004 -0.13672,0.004 -0.22265,0 -0.2461,-0.0156 -0.44532,-0.0664 -0.64844,-0.0937 -0.54297,-0.0742 -1.14453,-0.13671 -1.76953,-0.1875 -0.64063,-0.0547 -1.25,-0.12109 -1.90235,-0.17187 -0.26171,-0.0195 -0.53515,-0.0352 -0.8164,-0.0469 -0.32813,-0.0117 -0.67188,-0.0156 -0.97266,-0.043 -0.54297,-0.0508 -0.89844,-0.14063 -1.07812,-0.23829 -0.14453,-0.0781 -0.53907,-0.0976 -0.96094,-0.11328 -0.36719,-0.0117 -0.73047,-0.0312 -1.08984,-0.0469 -0.44532,-0.0156 -1,-0.0312 -0.96094,-0.13281 0.0156,-0.0469 0,-0.0859 -0.30078,-0.0977 -0.39844,-0.0195 -0.81641,0 -1.23438,0.0195 -0.67578,-0.0469 -1.34765,-0.0859 -2.0625,-0.10937 -0.90625,-0.0352 -1.82422,-0.0547 -2.72265,-0.0937 -0.73438,-0.0312 -1.49219,-0.043 -2.25,-0.0312 -0.72266,0.0117 -1.41407,0.0586 -1.92969,0.14453 -0.60938,0.10547 -0.79688,0.23828 -1.10938,0.37109 -0.16015,0.0664 -0.40234,0.12891 -0.67968,0.1875 -0.0195,-0.004 -0.043,-0.0117 -0.0625,-0.0156 -1.50782,-0.41407 -2.10938,-0.89063 -3.67969,-1.29297 -0.0781,-0.0195 -0.23828,-0.0312 -0.38672,-0.0234 -1.78516,0.0625 -3.06641,0.26562 -4.92969,0.30469 -0.95703,0.0195 -1.94531,0.0234 -2.9375,0.0195 -0.11328,-0.0117 -0.23047,-0.0195 -0.34765,-0.0312 -0.27735,-0.0234 -0.54297,-0.0508 -0.82422,-0.0742 -0.11328,-0.008 -0.23047,-0.0156 -0.35157,-0.0195 -0.14062,-0.008 -0.28906,-0.008 -0.42187,-0.0195 -0.23438,-0.0234 -0.38672,-0.0625 -0.46484,-0.10157 -0.0625,-0.0351 -0.23438,-0.043 -0.41797,-0.0508 -0.15625,-0.004 -0.3125,-0.0117 -0.46875,-0.0195 -0.19141,-0.008 -0.4336,-0.0156 -0.41407,-0.0586 0.004,-0.0195 0,-0.0352 -0.13281,-0.043 -0.17187,-0.008 -0.35156,0.004 -0.53125,0.0117 -0.29297,-0.0195 -0.58203,-0.0352 -0.89453,-0.0508 -0.39062,-0.0117 -0.78906,-0.0195 -1.17578,-0.0391 -0.32031,-0.0117 -0.64453,-0.0195 -0.97266,-0.0117 -0.0586,0 -0.11328,0.004 -0.17187,0.004 -0.27344,-0.0391 -0.51953,-0.082 -0.6875,-0.13281 -0.41797,-0.125 -0.53125,-0.26172 -1.03125,-0.38281 -0.39844,-0.0937 -0.91797,-0.17578 -1.62891,-0.21875 -0.80859,-0.0508 -1.69531,-0.0625 -2.53515,-0.0977 -0.95704,-0.0391 -1.88672,-0.10156 -2.73829,-0.17969 -0.86718,-0.0781 -1.72656,-0.17578 -2.22265,-0.30859 -0.44141,-0.12109 -0.61719,-0.26172 -1.08203,-0.38281 -0.0195,-0.004 -0.0664,-0.008 -0.10938,-0.004 -0.52734,0.0156 -0.90234,0.0781 -1.45312,0.0859 -0.0899,0.004 -0.1875,0.004 -0.28516,0.004 -1.75781,-0.3164 -3.54687,-0.72656 -6.15234,-0.875 -0.1875,-0.0117 -0.35547,0.0117 -0.41797,0.0352 -0.1836,0.0664 -0.23438,0.14453 -0.30078,0.21875 -0.51172,-0.0937 -1.03516,-0.21094 -1.79688,-0.25391 -0.0547,-0.004 -0.10547,0 -0.125,0.008 -0.14844,0.0547 0.004,0.13281 -0.46484,0.15234 -0.28906,0.0117 -0.66406,-0.004 -0.96094,-0.008 h -0.0547 c -0.0117,-0.004 -0.0234,-0.0117 -0.0195,-0.0195 0.004,-0.0195 0,-0.0352 -0.1289,-0.043 -0.17579,-0.008 -0.35547,0.004 -0.53516,0.0117 -0.29297,-0.0195 -0.58203,-0.0391 -0.89453,-0.0469 -0.39063,-0.0156 -0.78906,-0.0234 -1.17578,-0.0391 -0.31641,-0.0156 -0.64453,-0.0195 -0.97266,-0.0156 -0.3125,0.004 -0.60937,0.0234 -0.83594,0.0625 -0.26172,0.0469 -0.34375,0.10157 -0.48047,0.16016 -0.0273,0.0117 -0.0703,0.0234 -0.11328,0.0391 -0.17578,0.008 -0.35156,0.0156 -0.51953,0.0274 -0.34765,0.0234 -0.67578,0.0547 -1.0625,0.0664 -0.69531,0.0156 -1.38281,-0.0234 -1.9375,-0.0781 -0.4414,-0.0469 -0.8789,-0.0234 -1.33203,0.008 -0.38672,0.0273 -0.78125,0.0508 -1.17578,0.0742 -0.47656,0.0312 -1.04297,0.0781 -1.41797,-0.008 -0.17187,-0.0391 -0.34766,-0.0703 -0.67578,-0.0469 -0.43359,0.0274 -0.72656,0.0859 -1.03516,0.14063 -0.79297,0.0351 -1.5625,0.0742 -2.32031,0.125 -0.95312,0.0703 -1.875,0.14453 -2.84766,0.20703 -0.79296,0.0508 -1.53125,0.11719 -2.17187,0.20703 -0.28906,0.0391 -0.53516,0.082 -0.73047,0.13281 -0.59375,0.043 -1.20312,0.0781 -1.86328,0.0937 -2.05078,0.0469 -4.0625,-0.043 -5.79297,-0.19531 -0.94922,1.625 -2.72266,2.81641 -5.32812,2.81641 -0.79688,0 -1.51563,-0.11329 -2.16016,-0.31641 -0.30078,0.25781 -0.62891,0.49219 -0.98828,0.69141 -3.75391,2.0625 -7.66797,3.78906 -11.70703,5.3125 -1.94532,0.73828 -3.98438,0.12109 -5.52735,-1.06641 -1.3789,0.92969 -25.12109,2.88672 -57.41406,3.00781 -13.63672,0.0547 -30.24609,-0.73047 -45.3125,-0.33594 -11.695311,0.30469 -70.285155,-1.47656 -104.222655,2.16797 v 3 H 835.19922 Z m 0,0"
       id="path154" />
    <path
       fill-rule="nonzero"
       fill="#62b9e9"
       fill-opacity="1"
       d="M 835.19922,580.62891 H 7.265625 V 434.46484 H 835.19922 Z m 0,0"
       id="path156" />
    <path
       fill-rule="nonzero"
       fill="#62b9e9"
       fill-opacity="1"
       d="m 280.53516,267.36719 c 0.83203,-2.95703 -0.0937,-6.19141 -1.71094,-9.05078 0.55469,-2.03516 0.8789,-4.15625 0.50781,-6.05079 -0.46094,-2.30859 -2.03125,-4.15625 -2.76953,-6.375 -1.15234,-3.46093 -1.70703,-6.92578 -1.33984,-10.48046 0.0937,0.13671 0.1875,0.18359 0.32421,0.23046 0,0.0898 0.0469,0.0898 0.0937,0.0898 0.0899,0.0937 0.13672,0.14062 0.23047,0.1875 0.27735,0.23047 0.55469,0.41406 0.875,0.50781 0.74219,0.46094 1.48047,0.78516 2.35547,1.0625 0.0469,0.0469 0.14063,-0.0469 0.14063,-0.0937 -0.1875,-2.63281 -0.46094,-5.26562 -0.87891,-7.85156 -0.50781,-2.91016 -0.875,-6.78906 -2.30859,-9.41797 -1.42969,-2.58984 -5.63282,-0.97266 -8.26563,-0.1875 0.0469,-0.0937 0.0469,-0.18359 0.0469,-0.27734 2.95312,-3.83204 5.67968,-8.35938 4.98828,-13.4375 -0.55469,-3.69532 -3.60547,-8.67969 -6.78906,-10.71485 -4.29688,-2.76953 -9.5625,-0.73828 -13.8086,0.87891 l -0.0469,0.0469 c -2.91016,1.0625 -6.51172,2.03125 -6.64844,5.21875 0,0 -0.0469,0 0,0.0469 -0.87891,1.61328 -1.01563,3.55469 -1.0625,5.53906 0,1.98438 0,4.43359 1.47656,5.67969 -0.6914,3.32812 -0.875,7.25 1.84766,8.63672 0.23047,0.83203 0.83203,1.89453 1.52344,2.49218 -1.42969,1.0625 -3.09375,2.07813 -4.29688,3.41797 -0.46094,-1.01562 -1.19922,-1.84765 -2.35156,-2.26172 -1.15625,-0.37109 -2.40235,-0.37109 -3.60547,-0.46093 -1.80078,-0.14063 -3.64453,-0.41797 -5.40234,-0.83203 1.10937,-1.94141 3.05078,-3.09375 3.78906,-5.3125 0.0469,-0.0898 -0.0937,-0.1836 -0.1875,-0.0898 -0.59766,0.41406 -0.92188,0 -1.10547,-0.8789 0,-1.2461 -0.14063,-2.67969 -0.1875,-4.0625 v -0.1875 c 0.0469,-1.38282 0.1875,-2.44532 0.1875,-2.39844 0.0469,-1.61719 0,-3.32422 -0.1875,-4.94141 -0.32031,-3.23437 -1.15234,-6.60547 -2.58594,-9.55859 -1.9375,-4.01953 -5.44922,-6.65235 -9.64844,-7.80469 -2.125,-1.38672 -4.34375,-1.98828 -7.2539,-1.10937 -1.9375,0.55468 -3.92188,1.29296 -5.17188,2.67968 -1.19922,0.23047 -2.26172,0.69141 -3.14062,1.38282 -0.1836,0.0469 -0.36719,0.1875 -0.50391,0.32421 -2.82031,1.89454 -4.0664,5.26563 -4.52734,9.09766 -0.64453,2.86328 -0.83203,5.86328 -0.55469,8.82031 0.27734,2.67969 3.46484,12.23828 0.41406,13.57813 -0.0898,0.0469 -0.043,0.23047 0.0469,0.23047 2.03515,0 3.37109,-0.41797 4.52734,-1.52344 0.73828,1.84766 0.55469,4.10937 3,4.57031 1.25,0.23047 2.3086,-0.13672 3.1875,-0.83203 -0.0469,0.78516 -0.0469,1.57031 -0.0937,2.35547 -5.17187,3.78906 -12.55859,5.17187 -15.05078,11.54687 -1.94141,4.9375 -0.86719,10.80469 0.67578,16.15235 -2.45312,-2.07422 -3.9375,-3.10547 -6.45312,-5.10156 l -0.0273,-0.0625 c -1.60547,-2.46094 -3.28906,-4.95704 -5.66797,-6.1875 -0.66015,-0.98438 -1.33593,-1.90235 -2.01562,-2.8125 0.51172,0.10937 0.99219,0.25 1.32812,0.37109 1.19532,0.48828 1.59375,1.41797 2.61329,1.94922 0.0898,0.043 0.17968,0 0.17968,-0.0898 -0.44531,-1.76953 -1.24218,-3.23437 -2.03906,-4.78515 0,-0.043 0,-0.0859 -0.043,-0.13281 -0.0898,-0.17579 -0.13281,-0.35547 -0.22265,-0.53125 0.70703,-0.97657 0.83984,-2.12891 1.15234,-3.63282 0,-0.0898 -0.17969,-0.17968 -0.22266,-0.0898 -0.92968,1.99219 -2.92578,-2.12891 -3.01562,-2.26172 -0.79688,-1.68359 -0.92969,-3.14453 -1.10547,-4.96094 0,-0.0898 0,-0.17968 -0.043,-0.22265 0.17578,-0.13282 0.30859,-0.22266 -0.17969,-1.375 -0.13281,-0.75 -0.35547,-1.46094 -0.88672,-2.34766 -0.48437,-0.75391 -1.76953,-2.92578 -3.05859,-3.32422 -3.32031,-7.71094 -1.76953,-16.08594 -5.71484,-23.70703 -2.17188,-4.16797 -5.85157,-6.55859 -10.0586,-7.22656 0,-0.043 0,-0.0859 -0.0469,-0.0859 -5.80469,-3.28125 -17.27344,1.80078 -21.35156,7.03125 -1.72657,2.21484 -2.39454,4.47656 -2.61329,7.22266 -0.53125,5.58593 4.60938,21.23047 -7.04687,20.12109 -0.13281,0 -0.17578,0.17578 -0.0898,0.22266 1.01953,0.57422 1.86328,0.92968 2.70312,1.0625 -2.70312,1.32812 -0.49219,-0.69532 -2.66406,1.60937 -2.39453,2.52344 -3.72266,5.76172 -4.1211,9.26172 0,0.0898 0.13282,0.13281 0.21875,0.043 0.71094,-0.66406 1.46485,-1.28516 2.30469,-1.77344 0.0898,-0.043 0.22266,-0.13281 0.3125,-0.17578 0.13281,-0.0898 0.26563,-0.13281 0.39844,-0.22266 0.0898,-0.043 0.17578,-0.0859 0.26562,-0.0859 -0.97656,2.17187 -7.94921,3.38672 -8.83593,5.60156 -0.79688,1.99609 -2.75,6.42578 -5.23047,8.02344 -0.22266,0.13281 -0.39844,0.21875 -0.57813,0.30859 -1.19531,0.57422 -2.52343,0.35547 -3.89843,-1.19531 -0.043,-0.0898 -0.17578,0 -0.17578,0.13281 0.39843,1.85938 2.03906,3.14453 3.76562,3.5 -1.19531,7.88672 -11.04297,13.75 -10.91016,21.72656 0.0859,4.96485 -0.17968,6.8711 1.32813,8.50782 1.28516,2.70312 3.28125,5.27734 5.00781,7.53515 1.15235,1.46094 2.35156,2.87891 3.8125,3.98828 0.17578,0.13282 0.39844,0.3125 0.57422,0.39844 0.57813,11.87891 1.19922,23.75391 1.94922,35.62891 v 0.26953 c 0.13281,1.63672 -2.65625,10.09765 9.35547,11.625 4.17187,16.69531 9.1875,29.79687 8.39062,35.02734 -0.4414,2.92578 -0.94531,29.875 -1.875,36.83203 -0.22265,1.64063 -0.26562,7.55078 0,8.48047 -0.71094,2.08203 3.08203,4.65235 2.81641,6.82422 -0.22266,1.59766 -0.6211,3.50391 0.39844,4.92188 1.72656,2.39062 5.44921,2.03515 8.46093,1.63671 1.90625,0.84375 3.54688,2.08204 5.4961,3.01563 1.94922,0.92969 4.03515,1.375 6.16015,1.72656 2.48438,0.35547 6.25,0.97656 7.22266,-2.30469 0.57812,-1.99218 -0.57422,-3.10156 -2.30469,-3.85546 -3.27734,-1.50391 -6.02344,-2.39063 -8.68359,-5.05079 -1.19531,-1.24218 -2.26172,-2.61328 -3.23438,-4.07812 2.78907,-1.12109 4.17188,-21.75391 4.57422,-23.61719 0.94531,-4.72265 2.03906,-21.11328 2.61719,-19.65234 0.043,0.0469 0.19531,13.28515 0.19531,13.33203 1.46094,4.33984 0.9375,21.05469 2.6211,25.30859 0.043,0.0899 0.78125,3.00782 1.13671,5.22266 0.57422,3.67969 2.28125,3.54297 4.05469,4.69531 -0.39844,2.4375 -1.09375,4.80078 -1.0039,5.77735 0.39843,3.01171 8.79687,3.54296 11.5,3.76562 2.61718,0.17578 16.47656,3.19141 16.74609,-0.0195 0.44531,-5.37891 -5.54297,-5.77344 -15.58594,-10.01172 -0.76562,-0.32031 -0.62109,-1.46484 -1.0664,-2.12891 0.62109,-0.57421 0.71093,1.14063 0.57812,-0.32421 -0.26562,-2.65625 1.59375,-32.41016 2.57422,-43.77735 0.875,-7.89844 2.54687,-27.44531 2.8125,-31.52344 0.26562,-4.38671 2.15234,-12.44921 2.15234,-12.44921 1.10938,0.0469 5.08203,0.65625 5.5,-4.02344 1.10938,-12.40625 0.17969,-26.48438 0.39063,-43.32813 0.66406,-10.90234 0.29297,-12.22656 0.29297,-12.22656 5.03906,4.24609 11.28515,6.82813 14.09765,9.57813 -1.01562,5.59375 -2.44531,3.95312 -3.25,9.53906 -0.32031,2.26562 -0.50781,2.95703 1.38672,4.34375 1.66406,1.24609 4.29297,1.80078 6.1875,2.63281 2.3086,1.05859 5.07813,3.92188 7.39063,4.42969 h 0.043 c 0.46484,2.49609 1.10937,4.9414 1.80078,7.39062 -1.33594,1.89453 -3.1836,3.27735 -5.53907,3.97266 -0.23046,0.0898 -0.46093,0.13672 -0.69531,0.18359 -1.29297,0.23047 -2.67578,0.3711 -3.60156,1.29297 -0.92188,0.92188 -1.15234,2.07813 -0.36719,3.1875 1.38281,1.84766 5.44922,2.63281 7.4336,3.04688 2.125,0.46093 4.25,0.55468 6.42187,0.41406 2.30859,5.08203 4.61719,10.20703 6.87891,15.28906 0.96875,2.1211 1.84765,4.2461 2.95703,6.1875 -0.83203,3.41406 -0.60156,7.80469 -0.51172,11.08203 0.0469,2.86328 0.46484,5.63282 1.15625,8.35938 -1.66406,10.75781 -3.50781,21.61328 -4.80078,32.41797 -0.55469,4.66406 -3.87891,9.46484 -0.32422,10.53125 -1.66406,6.41797 -3.1875,12.65234 -9.51563,16.20703 -2.95312,1.70703 -8.17187,0.8789 -10.11328,4.20312 -3.27734,5.72657 5.3125,6.92578 10.53125,7.38672 2.39844,1.20313 4.94141,2.21875 7.38672,3.32813 2.07813,0.92187 4.20313,1.33593 6.46485,0.92187 3.92578,-0.73828 2.54296,-4.10937 1.29296,-7.11328 0.27735,-1.70703 0.92579,-3.32422 1.01954,-5.07812 0.0898,-1.29297 -0.0937,-2.53907 -0.41797,-3.74219 0.92578,-5.26172 1.89453,-10.48047 3.0039,-15.65235 0.69141,0.27344 1.42969,0.55079 2.1211,0.69141 0.0469,0 0.0937,0 0.14062,-0.0469 2.40235,-3.09375 2.26172,-9.42188 2.95313,-13.11719 0.97265,-5.44531 2.44922,-10.75781 4.29687,-15.97656 1.01563,3.32421 1.66406,6.65234 2.49219,10.01953 0.41797,1.66406 1.0625,2.49609 2.26562,2.82031 h 0.043 c 0.83203,3.13672 1.61719,6.28125 2.35547,9.41797 -1.19922,3.0039 -2.6289,5.54297 -5.07812,7.71484 -2.3086,2.1211 -5.26563,3.50781 -7.57422,5.63281 -1.84766,1.61719 -3,3.87891 -1.33985,6.14063 3.55469,4.80469 11.5,-1.19922 16.07032,-5.40234 0.0937,-0.0469 0.14062,-0.0899 0.1875,-0.13672 1.42968,-0.69532 2.90625,-1.0625 4.43359,-1.48047 1.61328,-0.41406 4.0625,-0.59766 5.44531,-1.47656 1.57422,-1.01563 0.64844,-3.1875 0.28125,-4.66407 -0.1875,-0.78515 -1.43359,-6.41797 -3.1875,-8.1289 -0.23047,-1.2461 -0.46484,-2.53907 -0.69531,-3.78516 -0.46094,-2.40234 -0.875,-4.80469 -1.33594,-7.16016 1.47657,-2.35156 0.69141,-5.86328 -0.14062,-9.0039 -0.41406,-2.63281 -0.96875,-5.35547 -1.47656,-7.52735 -0.0937,-0.50781 -0.1836,-1.01562 -0.27735,-1.47656 -0.0469,-0.27734 -0.14062,-0.55469 -0.18359,-0.78515 -0.0469,-0.32422 -0.14063,-0.64844 -0.1875,-0.92579 0,-0.13671 -0.0469,-0.27734 -0.0469,-0.36718 -0.50781,-3.00391 -1.42968,-5.72657 -2.58593,-8.3125 -0.27344,-0.73828 -0.64454,-1.47657 -0.96875,-2.21875 0,-0.043 0,-0.0899 -0.0469,-0.13672 -0.27734,-5.67969 -1.57031,-11.12891 -3,-16.625 5.86328,-12.69922 9.42188,-24.61328 11.73047,-38.00781 0.64453,2.03515 1.15234,4.01953 1.61719,6.09765 0.32031,3.83203 -0.14063,7.39063 -0.3711,11.22266 -0.0937,1.7539 0.14063,3.18359 2.03125,3.6914 2.03125,0.50782 6.00391,-0.27343 7.66797,-1.47656 0.96875,-0.6914 1.2461,-1.89453 1.29297,-3.14062 0.875,-1.84766 1.84375,-4.10938 0.96875,-6.00391 -0.73828,-1.42969 -1.94141,-2.72266 -2.81641,-4.10937 -0.0937,-0.13672 -0.14062,-0.23047 -0.23046,-0.36719 -0.0469,-0.0937 -0.0937,-0.1875 -0.1875,-0.27735 V 313.5 c -0.1836,-2.35547 -1.29297,-4.48047 -2.3086,-6.55859 1.89453,-1.29297 0.23047,-4.20313 -0.36719,-6.04688 -0.23046,-0.60156 -0.41796,-1.25 -0.64843,-1.84766 -0.27735,-0.83203 -0.55469,-1.61718 -0.875,-2.40234 -0.41797,-1.10937 -0.83203,-2.21875 -1.29297,-3.32422 -0.92578,-2.44922 -1.94141,-4.85156 -3.00391,-7.20703 3.83203,-6.74219 12.5625,-10.94531 14.8711,-18.74609"
       id="path158" />
  </g>
</svg>
