<svg xmlns="http://www.w3.org/2000/svg" width="1103.912" height="524.632" viewBox="0 0 827.934 393.474" fill="#62b9e9" xmlns:v="https://vecta.io/nano"><path d="M827.934 247.31c-6.199 0-13.602-1.137-14.164-3.789-1.359-.52-2.398-1.215-3.117-2.012-3.941-.09-6.691-1.184-8.227-2.684-4.836 1.348-10.453 1.703-16.648.922-10.25-1.289-18.863-5.301-29.312-6.098-3.883-.297-6.156-1.457-7.117-2.926a20.39 20.39 0 0 1-2.777.188c-1.344 0-2.547-.117-3.625-.324-.437.043-.852.031-1.258.109-.473.086-1.055.074-1.57.113l-.719.059c-.164.012-.586.09-.754.078-.242-.016-.434-.195-.645-.25-.367-.094-.578-.082-.641-.262-.019-.062.066-.215-.035-.262-.156-.074-.031 0-.254-.035-.215-.035-.414-.109-.637-.148-.258-.047-.285-.078-.488-.137-.098-.027-.355-.074-.449-.094-.113-.016-.293-.043-.492-.059-.258-.019-.609-.07-.879-.055-.418.027-.383.156-.594.258-.176-.105-.273-.375-.551-.445-.293-.078-.723.082-1.129.078-.352-.004-.414-.051-.687-.109-.195-.039-.34-.043-.578-.07-.227-.031-.184-.008-.332-.09-.141-.074-.137-.137-.387-.184-.422-.082-.895-.059-1.199-.215-.055-.047-.113-.094-.172-.141-.043-.008-.09-.004-.133.016a.72.72 0 0 1-.16.016l-.121-.051c-.207-.051-.883-.426-.98-.176-.379-.156-.187-.035-.379-.035-.293 0-.059-.016-.23-.023-.262-.008-.41-.047-.66-.012-.266.035-.004.055-.098.074-.187.039-.309.012-.488.016-.098.004-.172-.012-.285-.008-.105.004-.199.035-.309.043-.004 0-.148-.035-.152-.035-.105.008-.137.039-.227.051-.227.031-.453.059-.672.098-.301.051-.543.141-.84.176-.582.066-1.156-.086-1.539-.199-.562-.168-1.324-.109-1.996-.133-.621-.019-1.105-.094-1.598-.223-.242-.062-.473-.117-.754-.156-.152-.019-.336-.023-.484-.047-.312-.047-.195-.031-.266-.16-.133-.23-.441-.301-1.02-.379-.664-.09-.797-.32-1.277-.477-.332-.109-.469-.047-.84-.09-.187-.019-.402-.094-.59-.129-.617-.113-.551-.379-1.34-.387-.57-.008-1.254.043-1.703-.125-.117-.043-.195-.203-.355-.219-.055-.004-.203.055-.258.063-.219.039-.445.066-.684.086-.629.047-.906-.109-1.359-.238-.121-.035-.312-.117-.484-.09-.016.004-.129.094-.195.109-.121.031-.367.031-.512.051a14.7 14.7 0 0 0-1.094.164c-.266.055-.449.117-.773.113-.355-.004-.621-.078-.836-.18-.121-.059-.285-.312-.461-.336s-.344.078-.562.047-.523-.234-.687-.301a4.36 4.36 0 0 0-.699-.219c-.441-.094-.453-.027-.48.137-.094-.039-.348-.18-.512-.164-.094.012.004.102-.187.121-.293.031-.109-.027-.246-.039-.172-.016-.539-.031-.742-.027-.535.008-.375.199-.793.273-.297.055-.359.008-.637 0-.355-.008-.445.109-.75.133-.199.012-.238-.051-.414-.039-.105.008-.34.141-.437.168-.496.137-1.082.266-1.473.445-.184.086-.25.176-.5.242-.211.055-.469.082-.73.09-.504.016-1.309-.086-1.672-.187-.191-.051-.281-.137-.508-.187a4.48 4.48 0 0 0-.719-.082c-.699-.031-1.398.043-2.086.074a11.09 11.09 0 0 1-3.402-.332c-.5-.129-1.004-.23-1.598-.289-.328-.031-.691-.027-1.008-.059-.309-.035-.129.043-.273-.086-.066-.059-.062-.137-.102-.199-.129-.203-.332-.418-.77-.566-.469-.16-1.07-.168-1.652-.238-1.234-.156-1.664-.574-2.562-.867-.48-.156-1.02-.246-1.684-.254-.391-.004-.52-.004-.852-.074-.273-.059-.555-.109-.848-.156-.398-.059-.906-.094-1.227-.203-.395-.137-.391-.348-.879-.465-.465-.113-1.066-.113-1.613-.113-.719 0-1.43.004-2.145-.027-.594-.023-1.266-.059-1.801-.152-.23-.043-.387-.09-.52-.168-.125-.074-.176-.238-.434-.258-.172-.012-.57.086-.73.109-.273.039-.551.063-.84.086-.609.047-1.398.152-2.027.125-.508-.023-.996-.176-1.414-.27-.293-.062-.867-.254-1.246-.187-.137.019-.172.098-.281.133-.215.07-.492.078-.758.105-.715.078-1.387.195-2.059.309-.648.109-1.199.281-1.84.383-.309.051-.512.027-.816.047-.285.016-.5.094-.723.156-.184.051-.523.195-.758.207s-.18-.043-.422-.012-.469.207-.664.273c-.379.125-.465.09-.949.035-1.551-.176-3.094-.219-4.715-.184-.793.016-1.578.051-2.359.098l-1.043.07c-.016 0-1.109.066-.93-.051-.039.023-.664-.027-.824-.055-.613-.098-1.133-.301-1.551-.492-.203-.094-.391-.207-.641-.285-.262-.078-.266-.062-.449.051-.359.223-.527.473-.883.695-.328-.266-.273-.719-1.43-.695-.437.008-.969.078-1.355.152-.191.035-.352.043-.527.066-.328.047-.191.078-.367.156-.258.113-.738.129-1.012.238-.129.051-.176.129-.289.184-.176.094-.402.141-.66.203-.398.09-.738.207-1.09.32-.32.105-.652.305-1.035.363-.195.031-.117-.07-.289.023-.105.051-.023.164-.004.223.059.16.289.371.238.531-.098.313-2.074.066-2.605.019-1.977-.18-3.848-.488-5.836-.648l-.746-.055c-.172-.008-.309-.016-.41-.039-.797.102-1.648.16-2.57.16-4.469 0-7.461-1.266-9-2.965-.18.004-.352.016-.535.016-3.031 0-5.383-.586-7.07-1.488a19.22 19.22 0 0 1-3.52.309c-2.004 0-3.703-.258-5.117-.691-.187.074-.348.152-.543.227a3.36 3.36 0 0 1-.945.242c-.227.027-.875.199-1.07.188-.148-.012-.125-.094-.25-.105-.098-.012-.355.082-.395.094-.016.004-.301.105-.363.098-.168-.016-.008-.082-.121-.102-.047-.008-.652.238-.75.266-.41.113-.777.246-1.156.375-.238.078-.551.281-.816.332-.387.066-.656-.105-.793-.199-.398-.262-.848-.332-1.594-.148-.625.156-1.152.352-1.715.535l-2.457-.496c-2.187-.418-4.406-.719-6.707-.984-.891-.449-1.738-.922-2.988-1.137-.941-.164-1.461.082-1.949.383-1.086.668-2.715.309-4.098.07l-3.402-.594c-1.309-.242-2.562-.445-3.844-.074-1.602.461-3.59.746-5.598.617-.559-.035-1.078-.121-1.582-.219-.168-.113-.375-.219-.621-.309-.543-.203-1.172-.363-1.848-.48-.824-.141-1.605-.324-2.418-.48a27.83 27.83 0 0 0-1.973-.289c-.262-.129-.512-.27-.879-.332a.72.72 0 0 0-.57.113c-.32.195-.801.09-1.207.019l-1-.176c-.383-.07-.754-.129-1.129-.023-.473.137-1.059.223-1.648.184-.328-.019-.602-.098-.902-.152l-.437-.066c-.039-.027-.074-.059-.102-.09-.113-.133-.184-.266-.406-.371-.191-.09-.441-.133-.707-.145-.281-.012-.559 0-.828.031-.332.039-.668.059-1 .094a7.51 7.51 0 0 0-.758.109c-.152-.019-.309-.039-.453-.023-.109.016-.117.055-.109.102 0 .019-.012.031-.019.043h-.047c-.25.004-.57.047-.816.016-.395-.047-.27-.223-.395-.352-.016-.016-.059-.031-.105-.023-.645.102-1.09.379-1.527.594-.055-.172-.098-.352-.254-.508-.055-.055-.195-.105-.359-.082-2.207.348-3.73 1.297-5.223 2.043l-.246-.012c-.465-.027-.785-.164-1.23-.207-.035-.004-.074 0-.094.016-.395.277-.543.602-.922.887-.418.313-1.148.535-1.887.723-.723.18-1.512.32-2.328.414-.707.086-1.465.109-2.148.227-.609.102-1.047.285-1.387.512-.422.281-.52.602-.875.891-.145.117-.352.219-.586.309-.047-.004-.094-.012-.145-.012a5.26 5.26 0 0 0-.824.031c-.332.039-.668.059-1 .094a8.82 8.82 0 0 0-.758.109c-.156-.019-.309-.039-.457-.019-.109.012-.113.051-.109.098.016.102-.187.117-.352.137l-.398.047c-.156.016-.305.035-.355.113-.066.098-.195.188-.395.238-.113.027-.238.031-.359.043a3.34 3.34 0 0 0-.297.047c-.242.051-.465.117-.703.172-.098.023-.195.051-.293.078-.84 0-1.684-.008-2.496-.055-1.582-.09-2.672-.562-4.187-.707-.125-.012-.262.008-.328.055-1.336.938-1.844 2.051-3.125 3.012-.016.012-.039.023-.055.035-.238-.137-.441-.281-.578-.437-.266-.305-.422-.617-.937-.859-.441-.203-1.027-.312-1.645-.34-.641-.027-1.285.004-1.91.074-.762.09-1.543.141-2.312.215a22 22 0 0 0-1.754.258c-.355-.043-.707-.09-1.047-.051-.254.031-.27.125-.254.23.031.234-.441.27-.816.313l-.926.109c-.359.039-.695.082-.82.262-.152.223-.453.434-.914.551-.254.063-.547.07-.828.102a7.72 7.72 0 0 0-.691.109c-.555.117-1.07.273-1.617.398-.531.125-1.039.266-1.5.441-.172.063-.344.176-.551.215-.34.059-.48-.113-.734-.184-.031-.008-.082-.012-.105.004-.348.262-.262.633-.305.93-.059.414-.082.828-.141 1.238-.031.215-.019.434-.312.609-.254.156-.602.277-.937.395l-.203.07a14.75 14.75 0 0 0-1.465.344c-.148.012-.301.023-.445.055-.031.004-.051.019-.047.035s.016.035.023.055a10.88 10.88 0 0 0-1.902.828.7.7 0 0 1-.086-.019c-.355-.059-.691-.137-1.039-.207-.277-.051-.559-.09-.848-.121-.113-.059-.223-.117-.379-.145a.33.33 0 0 0-.246.047c-.137.086-.344.039-.52.008l-.43-.074c-.164-.027-.324-.055-.484-.008-.203.059-.453.094-.707.078-.141-.008-.262-.043-.391-.066-.059-.012-.121-.019-.187-.027-.016-.012-.031-.027-.043-.039-.051-.055-.078-.113-.176-.16-.078-.039-.187-.059-.305-.062s-.238 0-.355.016c-.141.016-.285.023-.43.039-.113.012-.219.027-.324.047a.83.83 0 0 0-.195-.008c-.047.004-.051.023-.047.043l-.027.016c-.109.004-.246.019-.352.008-.172-.019-.117-.098-.168-.148-.008-.008-.027-.016-.047-.012-.277.043-.469.16-.656.254-.023-.074-.043-.148-.109-.215-.023-.027-.086-.051-.152-.039-.949.148-1.605.559-2.246.879-.035 0-.07-.004-.105-.004-.199-.012-.336-.07-.527-.09-.016-.004-.035 0-.043.008-.168.117-.234.258-.395.379-.18.137-.496.23-.809.309a8.35 8.35 0 0 1-1.004.184c-.305.035-.629.047-.922.094-.262.047-.449.125-.598.219-.18.121-.223.262-.375.383-.062.055-.152.094-.25.133-.023 0-.043-.004-.062-.004a2.12 2.12 0 0 0-.355.016c-.141.016-.285.023-.43.039-.113.012-.219.027-.328.047-.062-.008-.129-.016-.191-.008-.047.004-.051.023-.047.043.004.043-.082.047-.152.055l-.172.023c-.07.008-.129.012-.152.047-.031.043-.086.082-.172.102-.047.012-.102.016-.152.019s-.09.012-.129.019c-.102.023-.199.051-.301.074l-.125.035a19.5 19.5 0 0 1-1.074-.023c-.68-.039-1.148-.242-1.801-.305-.051-.004-.113.004-.141.023-.25.176-.437.371-.609.563-.066-.031-.141-.055-.195-.09-.246-.152-.285-.328-.41-.496a2.01 2.01 0 0 0-.434-.414c-.453-.328-1.039-.637-1.523-.961a9.67 9.67 0 0 0-1.676-.883c-.242-.102-.652-.199-.805-.324-.238-.203.387-.297.625-.453.031-.019.035-.051-.027-.062-.965-.199-2.301-.129-3.375-.137l-4.512-.023c-.77-.008-1.559.008-2.211-.156-.582-.152-1.043-.352-1.484-.551-.418-.187-.902-.371-1.246-.578-.359-.215-.262-.457-.559-.676-.023-.019-.078-.031-.133-.027-1.145.066-2.211.273-3.359.352-1.273.086-2.594-.027-3.793-.18-.082-.008-.164-.019-.246-.031a2.36 2.36 0 0 0-.199-.102c-.398-.187-.859-.348-1.348-.488-.602-.168-1.172-.355-1.766-.531-.465-.141-.941-.254-1.43-.363-.195-.113-.383-.23-.648-.305-.203-.055-.309-.019-.406.027-.223.109-.574-.004-.867-.086l-.73-.203c-.277-.082-.547-.152-.812-.109-.332.055-.75.063-1.176-.016-.238-.039-.441-.117-.66-.18a8.1 8.1 0 0 0-.57-.141c-.492-.098-.996-.172-1.488-.266-.484-.09-.969-.168-1.457-.219-.18-.019-.406-.019-.586-.059-.289-.066-.203-.176-.301-.273-.012-.016-.043-.027-.078-.027-.5.019-.82.195-1.152.313-.465.156-.91.328-1.375.488-.238.082-.457.176-.828.172a9.52 9.52 0 0 1-1.035-.086c-.324-.039-.672-.07-.992-.125-.34-.059-.574-.18-.898-.246-.027-.008-.055-.004-.066.004-.273.156-.363.367-.625.531-.285.18-.805.273-1.324.336s-1.074.098-1.66.094c-.508 0-1.047-.047-1.535-.023-.434.019-.742.109-.977.234-.289.156-.348.371-.59.539-.273.191-.898.246-1.359.355-.223.051-.437.109-.641.168-.109.035-.25.066-.344.113-.297-.019-.598-.039-.902-.012-.484.039-.934.199-1.301.387-.375.188-.652.418-.988.625-.43.258-1.043.469-1.645.543-.488.066-.961.086-1.406.25-.379.141-.645.348-.797.578a1.39 1.39 0 0 0-.238.625c-.844.027-1.578.125-2.176.254-.734.16-1.223.371-1.867.551-.812.23-2.086.379-3.422.395-1.082.012-2.156-.016-3.07.109-.703.094-1.145.258-1.379.453a2.3 2.3 0 0 0-.555.082 7.29 7.29 0 0 1-2.402.27 5.79 5.79 0 0 1-.68-.098c-.074-.047-.164-.094-.27-.133a4.19 4.19 0 0 0-.793-.203c-.355-.062-.687-.141-1.039-.207-.277-.055-.555-.09-.848-.125-.113-.055-.219-.117-.379-.145a.32.32 0 0 0-.246.051c-.137.082-.34.039-.516.008l-.43-.074c-.164-.031-.324-.059-.488-.012-.199.059-.453.094-.707.078-.137-.008-.258-.043-.387-.066-.062-.008-.125-.019-.187-.027-.016-.012-.031-.023-.043-.039-.051-.055-.078-.113-.176-.156-.082-.039-.191-.059-.305-.066s-.238 0-.355.016c-.141.016-.285.023-.43.039a4.05 4.05 0 0 0-.324.047c-.066-.008-.133-.016-.195-.008-.047.004-.051.023-.047.043 0 .008-.004.012-.008.019-.129 0-.266.019-.371.004-.172-.019-.117-.094-.172-.148-.004-.008-.023-.016-.043-.012-.277.043-.469.164-.656.258-.023-.074-.043-.152-.109-.219-.023-.023-.086-.047-.152-.035-.953.148-1.605.555-2.246.875-.035 0-.07 0-.105-.004-.199-.012-.34-.07-.531-.09-.016 0-.031 0-.039.008-.168.117-.234.258-.395.379-.18.137-.496.234-.812.313s-.648.137-1 .18c-.305.035-.629.047-.922.098-.262.043-.449.121-.598.219-.18.121-.223.258-.375.383a.96.96 0 0 1-.254.133c-.019-.004-.039-.004-.059-.008-.121-.004-.242 0-.355.016-.145.016-.289.023-.43.039a4.15 4.15 0 0 0-.328.047c-.066-.008-.133-.016-.195-.008-.047.004-.047.023-.047.043.008.043-.082.051-.152.059-.055.004-.113.012-.168.019-.07.008-.133.016-.156.047-.027.043-.082.082-.168.105-.047.012-.102.012-.156.016-.043.008-.086.012-.125.023-.105.019-.199.051-.301.074a1.63 1.63 0 0 0-.129.031 19.67 19.67 0 0 1-1.074-.023c-.676-.039-1.145-.242-1.797-.305-.055-.004-.113.004-.141.023-.574.402-.793.883-1.344 1.297-.008.004-.016.008-.023.016-.102-.059-.187-.121-.246-.191-.113-.129-.184-.262-.406-.367-.187-.09-.441-.133-.707-.145-.273-.016-.551 0-.816.031-.328.039-.664.059-.996.09a10.9 10.9 0 0 0-.754.109c-.152-.016-.305-.039-.449-.019-.109.012-.117.055-.109.098.012.102-.191.117-.352.137l-.398.047c-.156.016-.297.035-.352.109-.066.098-.195.188-.395.238-.109.027-.234.031-.355.043a3.58 3.58 0 0 0-.297.047c-.238.051-.461.117-.691.172a4.87 4.87 0 0 0-.648.191c-.074.027-.145.074-.234.09-.148.027-.207-.047-.316-.078-.012-.004-.035-.004-.047.004-.148.113-.109.27-.129.398-.027.176-.035.355-.062.531-.012.094-.008.188-.133.262-.109.066-.258.121-.402.172a.58.58 0 0 0-.086.031c-.227.039-.437.09-.633.145-.062.004-.129.012-.191.023-.012.004-.019.008-.019.016l.012.023a4.46 4.46 0 0 0-1.086.52c-.062.039-.109.082-.16.121a2.06 2.06 0 0 1-.223 0c-.246-.016-.445-.066-.648-.094a33.03 33.03 0 0 0-1.77-.187l-1.902-.172c-.262-.019-.535-.035-.816-.047-.328-.012-.672-.016-.973-.043-.543-.051-.898-.141-1.078-.238-.145-.078-.539-.098-.961-.113l-1.09-.047c-.445-.016-1-.031-.961-.133.016-.047 0-.086-.301-.098-.398-.019-.816 0-1.234.019a55.83 55.83 0 0 0-2.062-.109l-2.723-.094c-.734-.031-1.492-.043-2.25-.031-.723.012-1.414.059-1.93.145-.609.105-.797.238-1.109.371a4.23 4.23 0 0 1-.68.188c-.019-.004-.043-.012-.062-.016-1.508-.414-2.109-.891-3.68-1.293-.078-.019-.238-.031-.387-.023-1.785.063-3.066.266-4.93.305l-2.937.019-.348-.031-.824-.074-.352-.019c-.141-.008-.289-.008-.422-.019-.234-.023-.387-.062-.465-.102-.062-.035-.234-.043-.418-.051-.156-.004-.312-.012-.469-.019-.191-.008-.434-.016-.414-.059.004-.019 0-.035-.133-.043-.172-.008-.352.004-.531.012l-.895-.051-1.176-.039a16.1 16.1 0 0 0-.973-.012c-.059 0-.113.004-.172.004-.273-.039-.52-.082-.687-.133-.418-.125-.531-.262-1.031-.383-.398-.094-.918-.176-1.629-.219-.809-.051-1.695-.062-2.535-.098a54.71 54.71 0 0 1-2.738-.18c-.867-.078-1.727-.176-2.223-.309-.441-.121-.617-.262-1.082-.383a.44.44 0 0 0-.109-.004c-.527.016-.902.078-1.453.086-.09.004-.187.004-.285.004-1.758-.316-3.547-.727-6.152-.875-.187-.012-.355.012-.418.035-.184.066-.234.145-.301.219-.512-.094-1.035-.211-1.797-.254-.055-.004-.105 0-.125.008-.148.055.004.133-.465.152-.289.012-.664-.004-.961-.008h-.055c-.012-.004-.023-.012-.019-.019.004-.019 0-.035-.129-.043-.176-.008-.355.004-.535.012l-.895-.047-1.176-.039c-.316-.016-.645-.019-.973-.016-.312.004-.609.023-.836.063-.262.047-.344.102-.48.16-.027.012-.07.023-.113.039l-.52.027c-.348.023-.676.055-1.062.066a16.48 16.48 0 0 1-1.937-.078c-.441-.047-.879-.023-1.332.008l-1.176.074c-.477.031-1.043.078-1.418-.008-.172-.039-.348-.07-.676-.047-.434.027-.727.086-1.035.141l-2.32.125-2.848.207a29.69 29.69 0 0 0-2.172.207c-.289.039-.535.082-.73.133a37.77 37.77 0 0 1-1.863.094c-2.051.047-4.062-.043-5.793-.195-.949 1.625-2.723 2.816-5.328 2.816-.797 0-1.516-.113-2.16-.316-.301.258-.629.492-.988.691-3.754 2.063-7.668 3.789-11.707 5.313-1.945.738-3.984.121-5.527-1.066-1.379.93-25.121 2.887-57.414 3.008-13.637.055-30.246-.73-45.313-.336-11.695.305-70.285-1.477-104.223 2.168v3h827.934zm0 0"/><path d="M827.934 393.474H.001V247.31h827.934zm0 0"/><path d="M273.27 80.212c.832-2.957-.094-6.191-1.711-9.051.555-2.035.879-4.156.508-6.051-.461-2.309-2.031-4.156-2.77-6.375-1.152-3.461-1.707-6.926-1.34-10.48.094.137.188.184.324.23 0 .09.047.09.094.09.09.094.137.141.23.188.277.23.555.414.875.508.742.461 1.48.785 2.355 1.063.047.047.141-.047.141-.094-.187-2.633-.461-5.266-.879-7.852-.508-2.91-.875-6.789-2.309-9.418-1.43-2.59-5.633-.973-8.266-.187.047-.094.047-.184.047-.277 2.953-3.832 5.68-8.359 4.988-13.437-.555-3.695-3.605-8.68-6.789-10.715-4.297-2.77-9.562-.738-13.809.879l-.047.047c-2.91 1.063-6.512 2.031-6.648 5.219 0 0-.047 0 0 .047-.879 1.613-1.016 3.555-1.062 5.539 0 1.984 0 4.434 1.477 5.68-.691 3.328-.875 7.25 1.848 8.637.23.832.832 1.895 1.523 2.492-1.43 1.063-3.094 2.078-4.297 3.418-.461-1.016-1.199-1.848-2.352-2.262-1.156-.371-2.402-.371-3.605-.461-1.801-.141-3.645-.418-5.402-.832 1.109-1.941 3.051-3.094 3.789-5.312.047-.09-.094-.184-.187-.09-.598.414-.922 0-1.105-.879 0-1.246-.141-2.68-.187-4.062v-.187c.047-1.383.188-2.445.188-2.398.047-1.617 0-3.324-.187-4.941-.32-3.234-1.152-6.605-2.586-9.559-1.937-4.02-5.449-6.652-9.648-7.805-2.125-1.387-4.344-1.988-7.254-1.109-1.937.555-3.922 1.293-5.172 2.68-1.199.23-2.262.691-3.141 1.383-.184.047-.367.188-.504.324-2.82 1.895-4.066 5.266-4.527 9.098a28.29 28.29 0 0 0-.555 8.82c.277 2.68 3.465 12.238.414 13.578-.09.047-.043.23.047.23 2.035 0 3.371-.418 4.527-1.523.738 1.848.555 4.109 3 4.57 1.25.23 2.309-.137 3.188-.832-.047.785-.047 1.57-.094 2.355-5.172 3.789-12.559 5.172-15.051 11.547-1.941 4.938-.867 10.805.676 16.152-2.453-2.074-3.937-3.105-6.453-5.102l-.027-.062c-1.605-2.461-3.289-4.957-5.668-6.187-.66-.984-1.336-1.902-2.016-2.812a10.74 10.74 0 0 1 1.328.371c1.195.488 1.594 1.418 2.613 1.949.09.043.18 0 .18-.09-.445-1.77-1.242-3.234-2.039-4.785 0-.043 0-.086-.043-.133-.09-.176-.133-.355-.223-.531.707-.977.84-2.129 1.152-3.633 0-.09-.18-.18-.223-.09-.93 1.992-2.926-2.129-3.016-2.262-.797-1.684-.93-3.145-1.105-4.961 0-.09 0-.18-.043-.223.176-.133.309-.223-.18-1.375a6.49 6.49 0 0 0-.887-2.348c-.484-.754-1.77-2.926-3.059-3.324-3.32-7.711-1.77-16.086-5.715-23.707-2.172-4.168-5.852-6.559-10.059-7.227 0-.043 0-.086-.047-.086-5.805-3.281-17.273 1.801-21.352 7.031-1.727 2.215-2.395 4.477-2.613 7.223-.531 5.586 4.609 21.23-7.047 20.121-.133 0-.176.176-.09.223 1.02.574 1.863.93 2.703 1.063-2.703 1.328-.492-.695-2.664 1.609-2.395 2.523-3.723 5.762-4.121 9.262 0 .09.133.133.219.043.711-.664 1.465-1.285 2.305-1.773.09-.043.223-.133.313-.176.133-.09.266-.133.398-.223.09-.043.176-.086.266-.086-.977 2.172-7.949 3.387-8.836 5.602-.797 1.996-2.75 6.426-5.23 8.023-.223.133-.398.219-.578.309-1.195.574-2.523.355-3.898-1.195-.043-.09-.176 0-.176.133.398 1.859 2.039 3.145 3.766 3.5-1.195 7.887-11.043 13.75-10.91 21.727.086 4.965-.18 6.871 1.328 8.508 1.285 2.703 3.281 5.277 5.008 7.535 1.152 1.461 2.352 2.879 3.813 3.988.176.133.398.313.574.398l1.949 35.629v.27c.133 1.637-2.656 10.098 9.355 11.625 4.172 16.695 9.188 29.797 8.391 35.027-.441 2.926-.945 29.875-1.875 36.832-.223 1.641-.266 7.551 0 8.48-.711 2.082 3.082 4.652 2.816 6.824-.223 1.598-.621 3.504.398 4.922 1.727 2.391 5.449 2.035 8.461 1.637 1.906.844 3.547 2.082 5.496 3.016s4.035 1.375 6.16 1.727c2.484.355 6.25.977 7.223-2.305.578-1.992-.574-3.102-2.305-3.855-3.277-1.504-6.023-2.391-8.684-5.051-1.195-1.242-2.262-2.613-3.234-4.078 2.789-1.121 4.172-21.754 4.574-23.617.945-4.723 2.039-21.113 2.617-19.652.043.047.195 13.285.195 13.332 1.461 4.34.938 21.055 2.621 25.309a59.12 59.12 0 0 1 1.137 5.223c.574 3.68 2.281 3.543 4.055 4.695-.398 2.438-1.094 4.801-1.004 5.777.398 3.012 8.797 3.543 11.5 3.766 2.617.176 16.477 3.191 16.746-.019.445-5.379-5.543-5.773-15.586-10.012-.766-.32-.621-1.465-1.066-2.129.621-.574.711 1.141.578-.324-.266-2.656 1.594-32.41 2.574-43.777.875-7.898 2.547-27.445 2.813-31.523.266-4.387 2.152-12.449 2.152-12.449 1.109.047 5.082.656 5.5-4.023 1.109-12.406.18-26.484.391-43.328.664-10.902.293-12.227.293-12.227 5.039 4.246 11.285 6.828 14.098 9.578-1.016 5.594-2.445 3.953-3.25 9.539-.32 2.266-.508 2.957 1.387 4.344 1.664 1.246 4.293 1.801 6.188 2.633 2.309 1.059 5.078 3.922 7.391 4.43h.043c.465 2.496 1.109 4.941 1.801 7.391-1.336 1.895-3.184 3.277-5.539 3.973-.23.09-.461.137-.695.184-1.293.23-2.676.371-3.602 1.293s-1.152 2.078-.367 3.188c1.383 1.848 5.449 2.633 7.434 3.047 2.125.461 4.25.555 6.422.414l6.879 15.289c.969 2.121 1.848 4.246 2.957 6.188-.832 3.414-.602 7.805-.512 11.082.047 2.863.465 5.633 1.156 8.359l-4.801 32.418c-.555 4.664-3.879 9.465-.324 10.531-1.664 6.418-3.187 12.652-9.516 16.207-2.953 1.707-8.172.879-10.113 4.203-3.277 5.727 5.313 6.926 10.531 7.387 2.398 1.203 4.941 2.219 7.387 3.328 2.078.922 4.203 1.336 6.465.922 3.926-.738 2.543-4.109 1.293-7.113.277-1.707.926-3.324 1.02-5.078.09-1.293-.094-2.539-.418-3.742.926-5.262 1.895-10.48 3.004-15.652.691.273 1.43.551 2.121.691.047 0 .094 0 .141-.047 2.402-3.094 2.262-9.422 2.953-13.117.973-5.445 2.449-10.758 4.297-15.977 1.016 3.324 1.664 6.652 2.492 10.02.418 1.664 1.063 2.496 2.266 2.82h.043l2.355 9.418c-1.199 3.004-2.629 5.543-5.078 7.715-2.309 2.121-5.266 3.508-7.574 5.633-1.848 1.617-3 3.879-1.34 6.141 3.555 4.805 11.5-1.199 16.07-5.402.094-.047.141-.09.188-.137 1.43-.695 2.906-1.062 4.434-1.48 1.613-.414 4.063-.598 5.445-1.477 1.574-1.016.648-3.187.281-4.664-.187-.785-1.434-6.418-3.187-8.129l-.695-3.785-1.336-7.16c1.477-2.352.691-5.863-.141-9.004a108.37 108.37 0 0 0-1.477-7.527l-.277-1.477c-.047-.277-.141-.555-.184-.785-.047-.324-.141-.648-.187-.926 0-.137-.047-.277-.047-.367-.508-3.004-1.43-5.727-2.586-8.312-.273-.738-.645-1.477-.969-2.219 0-.043 0-.09-.047-.137-.277-5.68-1.57-11.129-3-16.625 5.863-12.699 9.422-24.613 11.73-38.008a71.86 71.86 0 0 1 1.617 6.098c.32 3.832-.141 7.391-.371 11.223-.094 1.754.141 3.184 2.031 3.691 2.031.508 6.004-.273 7.668-1.477.969-.691 1.246-1.895 1.293-3.141.875-1.848 1.844-4.109.969-6.004-.738-1.43-1.941-2.723-2.816-4.109-.094-.137-.141-.23-.23-.367-.047-.094-.094-.187-.187-.277v-.047c-.184-2.355-1.293-4.48-2.309-6.559 1.895-1.293.23-4.203-.367-6.047-.23-.602-.418-1.25-.648-1.848-.277-.832-.555-1.617-.875-2.402l-1.293-3.324c-.926-2.449-1.941-4.852-3.004-7.207 3.832-6.742 12.563-10.945 14.871-18.746"/></svg>